<?xml version="1.0" encoding="UTF-8" standalone="no"?>
<!-- Created with Inkscape (http://www.inkscape.org/) -->

<svg
   version="1.1"
   id="svg1"
   width="983.51941"
   height="1021.7381"
   viewBox="0 0 983.51936 1021.7381"
   sodipodi:docname="90b.svg"
   inkscape:version="1.3.2 (091e20ef0f, 2023-11-25)"
   xmlns:inkscape="http://www.inkscape.org/namespaces/inkscape"
   xmlns:sodipodi="http://sodipodi.sourceforge.net/DTD/sodipodi-0.dtd"
   xmlns="http://www.w3.org/2000/svg"
   xmlns:svg="http://www.w3.org/2000/svg">
  <defs
     id="defs1" />
  <sodipodi:namedview
     id="namedview1"
     pagecolor="#ffffff"
     bordercolor="#000000"
     borderopacity="0.25"
     inkscape:showpageshadow="2"
     inkscape:pageopacity="0.0"
     inkscape:pagecheckerboard="0"
     inkscape:deskcolor="#d1d1d1"
     showgrid="false"
     inkscape:zoom="0.601948"
     inkscape:cx="495.05937"
     inkscape:cy="509.18019"
     inkscape:window-width="1920"
     inkscape:window-height="1011"
     inkscape:window-x="0"
     inkscape:window-y="0"
     inkscape:window-maximized="1"
     inkscape:current-layer="layer1" />
  <g
     inkscape:groupmode="layer"
     id="layer1"
     inkscape:label="Layer 1"
     transform="translate(-17.813985,-15.584992)">
    <path
       style="fill:#cdde87"
       d="m 316.00406,1035.1576 c 0.002,-1.3701 1.20222,-8.6623 2.66667,-16.205 3.26205,-16.8012 3.5171,-39.33612 0.59083,-52.20196 -2.68747,-11.81589 -8.92891,-22.06825 -17.26111,-28.35359 -8.20873,-6.19219 -31.14831,-18.01772 -56.28764,-29.0167 -31.78277,-13.90563 -62.0624,-32.85863 -80.89758,-50.63642 -12.53108,-11.82759 -41.02737,-46.08348 -46.43714,-55.82289 -13.41254,-24.1471 -26.825411,-60.66542 -29.694932,-80.84837 -1.048309,-7.37334 -3.517441,-18.50608 -5.486959,-24.73941 -4.870694,-15.41526 -4.764145,-27.80226 0.40264,-46.80948 l 3.84448,-14.14282 -27.388325,-0.75101 c -29.36428,-0.80521 -40.639381,-2.42179 -42.022053,-6.02497 -0.468719,-1.22147 -0.159737,-2.45167 0.686628,-2.73379 4.433758,-1.47792 11.060157,-9.5916 16.611342,-20.33971 8.962675,-17.35339 23.728991,-38.86715 34.355255,-50.05385 8.878257,-9.34649 9.516907,-9.74564 18.752562,-11.72009 5.258704,-1.12423 15.831762,-2.69798 23.495682,-3.49721 13.31224,-1.38826 18.73227,-2.84055 18.73227,-5.01927 0,-0.54911 3.9,-5.68925 8.66666,-11.42254 4.76667,-5.73328 8.74167,-10.9629 8.83334,-11.62137 0.0917,-0.65846 0.31667,-1.79721 0.5,-2.53054 0.18333,-0.73334 0.40833,-1.84568 0.5,-2.47188 0.0917,-0.62619 4.51667,-4.91962 9.83333,-9.54094 5.31667,-4.62132 9.54887,-8.71305 9.40489,-9.09273 -0.14398,-0.37967 -3.60576,-1.72496 -7.69286,-2.98953 -9.36401,-2.89728 -14.3291,-6.11355 -13.78658,-8.93063 0.23204,-1.20489 1.90972,-2.54193 3.72818,-2.97121 3.41568,-0.80634 6.03259,-4.71677 7.28443,-10.88508 0.40742,-2.00756 5.0648,-7.93579 10.7244,-13.65075 7.99971,-8.07796 10.00421,-10.90673 10.00421,-14.11799 0,-5.49593 3.81042,-8.84928 12.94749,-11.3944 28.62339,-7.97301 41.46866,-14.38237 43.56863,-21.7393 0.6988,-2.44811 2.69292,-5.38308 4.43138,-6.52217 6.83525,-4.47862 28.59514,0.39052 50.20456,11.23412 14.26309,7.15721 25.07574,8.80099 58.84795,8.94629 35.3288,0.152 36.40874,-0.17198 40.23464,-12.07042 3.55355,-11.05143 5.64319,-12.13475 27.76537,-14.39422 24.4669,-2.49895 30.07175,-4.59608 36.3879,-13.61498 3.38534,-4.83398 3.75635,-9.37641 1.07812,-13.20012 -1.02702,-1.46628 -10.02702,-8.57933 -20,-15.80676 l -18.13269,-13.1408 -0.0585,-35.48991 c -0.0478,-29.00592 -0.44123,-36.4643 -2.15323,-40.82324 -2.99109,-7.61562 -3.72281,-15.00232 -1.72462,-17.41 0.92502,-1.11458 4.59709,-3.28061 8.16017,-4.8134 10.32536,-4.44185 10.15713,-10.77008 -0.49137,-18.48381 -3.99413,-2.89333 -5.91593,-3.58039 -7.15002,-2.55619 -1.23043,1.02117 -4.53806,-0.0516 -12.2075,-3.95941 -5.78588,-2.94806 -13.7392,-6.05054 -17.67404,-6.89441 -10.83788,-2.32431 -35.03433,-0.92392 -43.91452,2.54159 -19.12511,7.46359 -42.12953,29.00853 -52.93397,49.57563 -3.72719,7.09501 -3.85031,7.93997 -3.78855,26 0.0833,24.34773 3.38704,35.35013 15.40326,51.29686 13.35876,17.72841 11.15073,21.50171 -13.14557,22.46445 -24.50039,0.97083 -45.35691,-3.62815 -60.32153,-13.30124 -13.77973,-8.90717 -30.70452,-26.74578 -35.88055,-37.81788 -8.29411,-17.74196 -8.47051,-18.01732 -12.01308,-18.75193 -15.82832,-3.28229 -37.86881,-13.92401 -48.87329,-23.59729 -4.30208,-3.78166 -6.25224,-6.82304 -7.80923,-12.1789 -1.15196,-3.96259 -4.30314,-9.8355 -7.08288,-13.20047 l -5.00765,-6.06194 v -18.2786 c 0,-18.2372 0.008,-18.2846 3.54684,-20.93002 5.08696,-3.80276 11.02118,-2.2565 21.75828,5.66947 15.52378,11.45942 35.33074,16.7707 58.70356,15.74148 11.17039,-0.49189 14.5342,-1.18481 20.66667,-4.2572 16.13676,-8.08458 33.38995,-24.369 51.69971,-48.79678 20.78834,-27.73454 56.82753,-62.112117 78.04962,-74.45109 6.73311,-3.914767 13.18925,-7.964767 14.347,-9 1.15774,-1.035232 2.54066,-1.882241 3.07315,-1.882241 1.7488,0 12.64338,-5.299198 13.39507,-6.515449 0.40421,-0.654026 2.354,-1.5955 4.33287,-2.092164 1.97886,-0.496663 5.24061,-2.072716 7.24833,-3.502338 4.22307,-3.007091 17.41466,-6.395303 41.59086,-10.682465 9.39323,-1.6657 18.06495,-3.749786 19.2705,-4.631302 1.8924,-1.383759 1.23631,-2.013835 -4.80166,-4.611301 -8.02414,-3.451892 -10.88077,-6.798881 -10.88077,-12.748508 0,-5.761491 4.39678,-10.837672 11.07149,-12.78229 7.15239,-2.083786 42.40733,-2.002121 60.26185,0.139592 20.23894,2.427733 38.9445,6.517603 45.87767,10.030907 8.0653,4.086995 16.4385,13.253018 21.32867,23.348196 5.69048,11.747316 11.49906,18.36736 22.0671,25.149899 12.46831,8.002126 23.28026,16.323144 34.68417,26.693394 12.14088,11.04044 20.53967,15.12891 28.85217,14.04507 14.61407,-1.9055 32.42047,12.1709 35.88688,28.36947 0.88708,4.14531 3.90573,10.50139 7.59877,16 8.74669,13.02303 11.29915,21.08833 12.06775,38.13188 0.76405,16.94261 -0.86773,26.64303 -6.73277,40.02433 -3.57521,8.15695 -4.22539,11.26757 -4.24302,20.29973 -0.0115,5.86667 0.43313,12.31667 0.98797,14.33334 0.8993,3.26869 1.62108,3.66418 6.65006,3.64381 3.10269,-0.0126 10.14126,-1.20228 15.64126,-2.64381 11.91901,-3.12394 21.41327,-3.38331 26.55309,-0.72541 6.81288,3.52308 8.29825,9.22255 9.58566,36.78088 0.64267,13.75698 1.72198,31.38692 2.39846,39.17764 1.39773,16.09704 0.45132,21.41471 -4.73417,26.60021 -5.83681,5.8368 -21.6464,15.60789 -37.27867,23.04001 -11.00549,5.23238 -15.75928,8.28662 -18.50909,11.89181 -2.03508,2.66812 -5.65913,5.66965 -8.05346,6.67006 -6.28766,2.62715 -14.36746,12.69888 -21.90404,27.30411 -8.40194,16.2822 -20.29469,34.22381 -30.00141,45.26067 -9.82716,11.17379 -11.87592,15.15394 -10.89905,21.17366 1.09382,6.74046 8.34303,20.90643 12.28547,24.00756 4.43706,3.49019 3.27761,8.01567 -3.96401,15.47205 -4.15612,4.27938 -6.85461,5.85219 -11.17778,6.51492 -4.49869,0.68965 -6.26913,1.78192 -8.40603,5.18606 -3.75584,5.98319 -2.58663,13.32985 4.26863,26.82173 7.32647,14.41928 10.09623,18.12343 15.12187,20.22328 4.66299,1.94832 6.29728,1.69034 25.38119,-4.0065 16.00009,-4.77627 30.2992,-4.8564 52.00001,-0.29139 18.98335,3.99336 21.52908,4.88594 26.95363,9.4504 5.18175,4.36015 12.18318,6.8543 26.12555,9.30682 13.53703,2.38121 17.69744,3.94315 19.50642,7.32325 3.03373,5.66857 0.72652,17.59523 -4.63684,23.96921 -4.0978,4.86996 -4.15842,6.84894 -0.2098,6.84894 4.04591,0 13.45674,-6.12964 20.92771,-13.63103 18.59978,-18.67551 27.14654,-27.92868 29.47081,-31.90669 14.13683,-24.19526 21.02822,-53.40098 19.45781,-82.46227 -0.95146,-17.60715 -4.56054,-29.60809 -11.57149,-38.47761 -6.26712,-7.9285 -20.14644,-18.15075 -28.51662,-21.00276 -5.48205,-1.86792 -6.43251,-1.85533 -10.63928,0.14091 -2.5407,1.20564 -9.02536,5.92068 -14.41034,10.47787 -5.38499,4.55719 -11.41978,9.31535 -13.41065,10.57369 -7.65455,4.83812 -20.74603,1.1653 -23.92697,-6.71271 -1.18893,-2.94456 -0.76785,-7.20855 2.13961,-21.66606 1.99092,-9.9 4.9656,-21.35927 6.6104,-25.46506 7.05197,-17.60328 26.60127,-41.29332 39.13684,-47.42641 6.31433,-3.08931 9.72275,-3.79056 20.53459,-4.22483 17.76321,-0.71346 30.07297,2.18297 47.13512,11.09069 19.14312,9.99413 18.25801,9.89311 24.95368,2.84807 10.61828,-11.17234 34.53935,-20.31979 50.16783,-19.18426 13.63621,0.99078 32.06955,9.84145 45.33291,21.76635 6.56639,5.90375 16.2024,20.65745 16.2024,24.80747 0,5.73586 -12.64049,12.38129 -31.3333,16.47269 -12.89322,2.82201 -17.13068,4.80415 -23.67525,11.07451 -15.59826,14.94472 -16.28261,46.61069 -2.80027,129.57411 1.64498,10.12236 2.29047,22.30921 2.33051,43.99999 0.0666,36.05263 -1.61587,48.31295 -9.19406,67 -1.29447,3.19203 3.29309,3.0944 15.66248,-0.33333 11.04418,-3.0605 17.43414,-3.3906 19.35803,-1 1.94315,2.41451 -2.94227,37.75624 -7.10783,51.419 -7.16357,23.49599 -27.8384,57.14041 -41.54438,67.60571 -8.33631,6.36524 -16.10554,8.37778 -41.02924,10.62818 -21.75032,1.96387 -36.83885,5.28416 -54.66667,12.02963 -19.07682,7.21804 -63.33334,26.39347 -63.33334,27.44101 0,1.5782 17.10371,16.04904 26.55534,22.46752 4.46123,3.02956 8.11133,6.0721 8.11133,6.76121 0,3.56365 -10.49374,6.80573 -30,9.26863 -11.52699,1.45542 -63.60558,5.05812 -81.95624,5.66958 l -11.28956,0.37618 -14.42255,-18.66667 c -7.93241,-10.26667 -16.95211,-22.41537 -20.04378,-26.99712 -5.81452,-8.61692 -13.31811,-13.66753 -23.28898,-15.67563 -5.65468,-1.13884 -6.51076,1.07378 -4.35174,11.24751 1.98116,9.33568 0.38419,13.91384 -6.18842,17.74079 -16.2173,9.44265 -60.42736,1.94373 -77.12542,-13.08203 -2.2,-1.97967 -7.61713,-5.2628 -12.03806,-7.29585 -10.45725,-4.80896 -19.39793,-14.4188 -25.707,-27.63102 l -4.92161,-10.30664 v -42 -42 l -7.33333,-10.9024 c -4.03334,-5.99632 -10.26876,-16.02332 -13.85651,-22.28222 -3.58774,-6.25891 -9.44835,-14.8394 -13.02357,-19.06777 -3.57522,-4.22837 -7.74536,-10.10137 -9.26697,-13.05111 -5.92493,-11.48585 -11.89538,-14.6787 -30.96529,-16.55946 -6.47845,-0.63893 -12.33538,-1.71808 -13.01541,-2.3981 -0.68002,-0.68002 -2.57947,-3.89947 -4.221,-7.15433 -2.466,-4.88967 -4.52353,-6.69854 -11.84154,-10.41051 -7.52011,-3.81448 -10.66336,-4.59557 -20.82503,-5.17496 -16.79276,-0.95748 -16.95215,-0.76015 -18.13638,22.45398 -1.08301,21.22988 -2.96281,30.86545 -10.07848,51.66084 -2.92696,8.55399 -5.90623,19.25305 -6.6206,23.77568 -0.71436,4.52263 -3.09061,11.83429 -5.28054,16.24812 -4.82419,9.72322 -14.92141,26.86224 -15.82552,26.86224 -0.3591,0 -7.50734,-7.15452 -15.88497,-15.89893 -16.56077,-17.28582 -24.758,-22.81278 -29.81803,-20.10473 -4.26927,2.28484 -5.67628,7.49538 -5.6377,20.87792 0.06,20.82346 6.40815,36.36825 23.35625,57.19293 24.98122,30.69524 52.32122,43.62126 79.87565,37.76426 3.8861,-0.82603 14.56563,-4.46267 23.7323,-8.08142 16.93285,-6.68461 19.1525,-7.65505 25.67286,-11.22429 5.49442,-3.00765 16.3147,-2.88696 19.74814,0.22026 7.8399,7.09501 13.17721,37.6059 9.01098,51.51153 -1.91952,6.40677 -9.51162,15.24026 -18.80306,21.87754 -10.42498,7.44701 -19.42954,16.55408 -20.96356,21.20221 -1.58677,4.80794 -0.85053,19.50631 1.27156,25.38557 1.06446,2.9491 1.06152,6.58831 -0.0107,13.33333 -0.81115,5.10243 -1.96979,12.39157 -2.57476,16.1981 -2.9211,18.3799 -23.1595,45.2992 -38.53769,51.2594 -5.80588,2.2502 -11.2859,3.0375 -24.48039,3.5171 -15.933,0.5791 -16.99975,0.4615 -16.99597,-1.8731 z"
       id="path2" />
    <path
       style="fill:#ffff00"
       d="m 510.56441,529.88143 c 4.81632,-4.05266 5.13372,-6.87727 1.3179,-11.7283 -8.89982,-11.31429 -26.54894,-9.42069 -26.54894,2.84848 0,3.23659 1.11698,5.65379 3.89744,8.43425 3.26842,3.26841 4.97343,3.89743 10.56437,3.89743 5.22716,0 7.55284,-0.74545 10.76923,-3.45186 z"
       id="path3" />
    <path
       style="fill:#000000"
       d="m 316.00406,1035.1576 c 0.002,-1.3701 1.20222,-8.6623 2.66667,-16.205 3.26205,-16.8012 3.5171,-39.3361 0.59083,-52.20194 -2.68747,-11.81589 -8.92891,-22.06825 -17.26111,-28.35359 -8.20873,-6.19219 -31.14831,-18.01772 -56.28764,-29.0167 -31.78277,-13.90563 -62.0624,-32.85863 -80.89758,-50.63642 -12.53108,-11.82759 -41.02737,-46.08348 -46.43714,-55.82289 -13.41254,-24.1471 -26.825411,-60.66542 -29.694932,-80.84837 -1.048309,-7.37334 -3.517441,-18.50608 -5.486959,-24.73941 -4.870694,-15.41526 -4.764145,-27.80226 0.40264,-46.80948 l 3.84448,-14.14282 -27.388325,-0.75101 c -29.36428,-0.80521 -40.639381,-2.42179 -42.022053,-6.02497 -0.468719,-1.22147 -0.159737,-2.45167 0.686628,-2.73379 4.433758,-1.47792 11.060157,-9.5916 16.611342,-20.33971 8.962675,-17.35339 23.728991,-38.86715 34.355255,-50.05385 8.878257,-9.34649 9.516907,-9.74564 18.752562,-11.72009 5.258704,-1.12423 15.831762,-2.69798 23.495682,-3.49721 13.31224,-1.38826 18.73227,-2.84055 18.73227,-5.01927 0,-0.54911 3.9,-5.68925 8.66666,-11.42254 4.76667,-5.73328 8.74167,-10.9629 8.83334,-11.62137 0.0917,-0.65846 0.31667,-1.79721 0.5,-2.53054 0.18333,-0.73334 0.40833,-1.84568 0.5,-2.47188 0.0917,-0.62619 4.51667,-4.91962 9.83333,-9.54094 5.31667,-4.62132 9.54887,-8.71305 9.40489,-9.09273 -0.14398,-0.37967 -3.60576,-1.72496 -7.69286,-2.98953 -9.36401,-2.89728 -14.3291,-6.11355 -13.78658,-8.93063 0.23204,-1.20489 1.90972,-2.54193 3.72818,-2.97121 3.41568,-0.80634 6.03259,-4.71677 7.28443,-10.88508 0.40742,-2.00756 5.0648,-7.93579 10.7244,-13.65075 7.99971,-8.07796 10.00421,-10.90673 10.00421,-14.11799 0,-5.49593 3.81042,-8.84928 12.94749,-11.3944 28.62339,-7.97301 41.46866,-14.38237 43.56863,-21.7393 0.6988,-2.44811 2.69292,-5.38308 4.43138,-6.52217 6.83525,-4.47862 28.59514,0.39052 50.20456,11.23412 14.26309,7.15721 25.07574,8.80099 58.84795,8.94629 35.3288,0.152 36.40874,-0.17198 40.23464,-12.07042 3.55355,-11.05143 5.64319,-12.13475 27.76537,-14.39422 24.4669,-2.49895 30.07175,-4.59608 36.3879,-13.61498 3.38534,-4.83398 3.75635,-9.37641 1.07812,-13.20012 -1.02702,-1.46628 -10.02702,-8.57933 -20,-15.80676 l -18.13269,-13.1408 -0.0585,-35.48991 c -0.0478,-29.00592 -0.44123,-36.4643 -2.15323,-40.82324 -2.99109,-7.61562 -3.72281,-15.00232 -1.72462,-17.41 0.92502,-1.11458 4.59709,-3.28061 8.16017,-4.8134 10.32536,-4.44185 10.15713,-10.77008 -0.49137,-18.48381 -3.99413,-2.89333 -5.91593,-3.58039 -7.15002,-2.55619 -1.23043,1.02117 -4.53806,-0.0516 -12.2075,-3.95941 -5.78588,-2.94806 -13.7392,-6.05054 -17.67404,-6.89441 -10.83788,-2.32431 -35.03433,-0.92392 -43.91452,2.54159 -19.12511,7.46359 -42.12953,29.00853 -52.93397,49.57563 -3.72719,7.09501 -3.85031,7.93997 -3.78855,26 0.0833,24.34773 3.38704,35.35013 15.40326,51.29686 13.35876,17.72841 11.15073,21.50171 -13.14557,22.46445 -24.50039,0.97083 -45.35691,-3.62815 -60.32153,-13.30124 -13.77973,-8.90717 -30.70452,-26.74578 -35.88055,-37.81788 -8.29411,-17.74196 -8.47051,-18.01732 -12.01308,-18.75193 -15.82832,-3.28229 -37.86881,-13.92401 -48.87329,-23.59729 -4.30208,-3.78166 -6.25224,-6.82304 -7.80923,-12.1789 -1.15196,-3.96259 -4.30314,-9.8355 -7.08288,-13.20047 l -5.00765,-6.06194 v -18.2786 c 0,-18.2372 0.008,-18.2846 3.54684,-20.93002 5.08696,-3.80276 11.02118,-2.2565 21.75828,5.66947 15.52378,11.45942 35.33074,16.7707 58.70356,15.74148 11.17039,-0.49189 14.5342,-1.18481 20.66667,-4.2572 16.13676,-8.08458 33.38995,-24.369 51.69971,-48.79678 20.78834,-27.73454 56.82753,-62.112115 78.04962,-74.451088 6.73311,-3.914767 13.18925,-7.964767 14.347,-9 1.15774,-1.035232 2.54066,-1.882241 3.07315,-1.882241 1.7488,0 12.64338,-5.299198 13.39507,-6.515449 0.40421,-0.654026 2.354,-1.5955 4.33287,-2.092164 1.97886,-0.496663 5.24061,-2.072716 7.24833,-3.502338 4.22307,-3.007091 17.41466,-6.395303 41.59086,-10.682465 9.39323,-1.6657 18.06495,-3.749786 19.2705,-4.631302 1.8924,-1.383759 1.23631,-2.013835 -4.80166,-4.611301 -8.02414,-3.451892 -10.88077,-6.798881 -10.88077,-12.748508 0,-5.761491 4.39678,-10.837672 11.07149,-12.78229 7.15239,-2.083786 42.40733,-2.002121 60.26185,0.139592 20.23894,2.427733 38.9445,6.517603 45.87767,10.030907 8.0653,4.086995 16.4385,13.253018 21.32867,23.348196 5.69048,11.747316 11.49906,18.36736 22.0671,25.149899 12.46831,8.002126 23.28026,16.323144 34.68417,26.693392 12.14088,11.04044 20.53967,15.12891 28.85217,14.04507 14.61407,-1.9055 32.42047,12.1709 35.88688,28.36947 0.88708,4.14531 3.90573,10.50139 7.59877,16 8.74669,13.02303 11.29915,21.08833 12.06775,38.13188 0.76405,16.94261 -0.86773,26.64303 -6.73277,40.02433 -3.57521,8.15695 -4.22539,11.26757 -4.24302,20.29973 -0.0115,5.86667 0.43313,12.31667 0.98797,14.33334 0.8993,3.26869 1.62108,3.66418 6.65006,3.64381 3.10269,-0.0126 10.14126,-1.20228 15.64126,-2.64381 11.91901,-3.12394 21.41327,-3.38331 26.55309,-0.72541 6.81288,3.52308 8.29825,9.22255 9.58566,36.78088 0.64267,13.75698 1.72198,31.38692 2.39846,39.17764 1.39773,16.09704 0.45132,21.41471 -4.73417,26.60021 -5.83681,5.8368 -21.6464,15.60789 -37.27867,23.04001 -11.00549,5.23238 -15.75928,8.28662 -18.50909,11.89181 -2.03508,2.66812 -5.65913,5.66965 -8.05346,6.67006 -6.28766,2.62715 -14.36746,12.69888 -21.90404,27.30411 -8.40194,16.2822 -20.29469,34.22381 -30.00141,45.26067 -9.82716,11.17379 -11.87592,15.15394 -10.89905,21.17366 1.09382,6.74046 8.34303,20.90643 12.28547,24.00756 4.43706,3.49019 3.27761,8.01567 -3.96401,15.47205 -4.15612,4.27938 -6.85461,5.85219 -11.17778,6.51492 -4.49869,0.68965 -6.26913,1.78192 -8.40603,5.18606 -3.75584,5.98319 -2.58663,13.32985 4.26863,26.82173 7.32647,14.41928 10.09623,18.12343 15.12187,20.22328 4.66299,1.94832 6.29728,1.69034 25.38119,-4.0065 16.00009,-4.77627 30.2992,-4.8564 52.00001,-0.29139 18.98335,3.99336 21.52908,4.88594 26.95363,9.4504 5.18175,4.36015 12.18318,6.8543 26.12555,9.30682 13.53703,2.38121 17.69744,3.94315 19.50642,7.32325 3.03373,5.66857 0.72652,17.59523 -4.63684,23.96921 -4.0978,4.86996 -4.15842,6.84894 -0.2098,6.84894 4.04591,0 13.45674,-6.12964 20.92771,-13.63103 18.59978,-18.67551 27.14654,-27.92868 29.47081,-31.90669 14.13683,-24.19526 21.02822,-53.40098 19.45781,-82.46227 -0.95146,-17.60715 -4.56054,-29.60809 -11.57149,-38.47761 -6.26712,-7.9285 -20.14644,-18.15075 -28.51662,-21.00276 -5.48205,-1.86792 -6.43251,-1.85533 -10.63928,0.14091 -2.5407,1.20564 -9.02536,5.92068 -14.41034,10.47787 -5.38499,4.55719 -11.41978,9.31535 -13.41065,10.57369 -7.65455,4.83812 -20.74603,1.1653 -23.92697,-6.71271 -1.18893,-2.94456 -0.76785,-7.20855 2.13961,-21.66606 1.99092,-9.9 4.9656,-21.35927 6.6104,-25.46506 7.05197,-17.60328 26.60127,-41.29332 39.13684,-47.42641 6.31433,-3.08931 9.72275,-3.79056 20.53459,-4.22483 17.76321,-0.71346 30.07297,2.18297 47.13512,11.09069 19.14312,9.99413 18.25801,9.89311 24.95368,2.84807 10.61828,-11.17234 34.53935,-20.31979 50.16783,-19.18426 13.63621,0.99078 32.06955,9.84145 45.33291,21.76635 6.56639,5.90375 16.2024,20.65745 16.2024,24.80747 0,5.73586 -12.64049,12.38129 -31.3333,16.47269 -12.89322,2.82201 -17.13068,4.80415 -23.67525,11.07451 -15.59826,14.94472 -16.28261,46.61069 -2.80027,129.57411 1.64498,10.12236 2.29047,22.30921 2.33051,43.99999 0.0666,36.05263 -1.61587,48.31295 -9.19406,67 -1.29447,3.19203 3.29309,3.0944 15.66248,-0.33333 11.04418,-3.0605 17.43414,-3.3906 19.35803,-1 1.94315,2.41451 -2.94227,37.75624 -7.10783,51.419 -7.16357,23.49599 -27.8384,57.14041 -41.54438,67.60571 -8.33631,6.36524 -16.10554,8.37778 -41.02924,10.62818 -21.75032,1.96387 -36.83885,5.28416 -54.66667,12.02963 -19.07682,7.21804 -63.33334,26.39347 -63.33334,27.44101 0,1.5782 17.10371,16.04904 26.55534,22.46752 4.46123,3.02956 8.11133,6.0721 8.11133,6.76121 0,3.56365 -10.49374,6.80573 -30,9.26863 -11.52699,1.45542 -63.60558,5.05812 -81.95624,5.66958 l -11.28956,0.37618 -14.42255,-18.66667 c -7.93241,-10.26667 -16.95211,-22.41537 -20.04378,-26.99712 -5.81452,-8.61692 -13.31811,-13.66753 -23.28898,-15.67563 -5.65468,-1.13884 -6.51076,1.07378 -4.35174,11.24751 1.98116,9.33568 0.38419,13.91384 -6.18842,17.74079 -16.2173,9.44265 -60.42736,1.94373 -77.12542,-13.08203 -2.2,-1.97967 -7.61713,-5.2628 -12.03806,-7.29585 -10.45725,-4.80896 -19.39793,-14.4188 -25.707,-27.63102 l -4.92161,-10.30664 v -42 -42 l -7.33333,-10.9024 c -4.03334,-5.99632 -10.26876,-16.02332 -13.85651,-22.28222 -3.58774,-6.25891 -9.44835,-14.8394 -13.02357,-19.06777 -3.57522,-4.22837 -7.74536,-10.10137 -9.26697,-13.05111 -5.92493,-11.48585 -11.89538,-14.6787 -30.96529,-16.55946 -6.47845,-0.63893 -12.33538,-1.71808 -13.01541,-2.3981 -0.68002,-0.68002 -2.57947,-3.89947 -4.221,-7.15433 -2.466,-4.88967 -4.52353,-6.69854 -11.84154,-10.41051 -7.52011,-3.81448 -10.66336,-4.59557 -20.82503,-5.17496 -16.79276,-0.95748 -16.95215,-0.76015 -18.13638,22.45398 -1.08301,21.22988 -2.96281,30.86545 -10.07848,51.66084 -2.92696,8.55399 -5.90623,19.25305 -6.6206,23.77568 -0.71436,4.52263 -3.09061,11.83429 -5.28054,16.24812 -4.82419,9.72322 -14.92141,26.86224 -15.82552,26.86224 -0.3591,0 -7.50734,-7.15452 -15.88497,-15.89893 -16.56077,-17.28582 -24.758,-22.81278 -29.81803,-20.10473 -4.26927,2.28484 -5.67628,7.49538 -5.6377,20.87792 0.06,20.82346 6.40815,36.36825 23.35625,57.19293 24.98122,30.69524 52.32122,43.62126 79.87565,37.76426 3.8861,-0.82603 14.56563,-4.46267 23.7323,-8.08142 16.93285,-6.68461 19.1525,-7.65505 25.67286,-11.22429 5.49442,-3.00765 16.3147,-2.88696 19.74814,0.22026 7.8399,7.09501 13.17721,37.6059 9.01098,51.51153 -1.91952,6.40677 -9.51162,15.24026 -18.80306,21.87754 -10.42498,7.44701 -19.42954,16.55408 -20.96356,21.20221 -1.58677,4.80794 -0.85053,19.50631 1.27156,25.38557 1.06446,2.9491 1.06152,6.58831 -0.0107,13.33333 -0.81115,5.10243 -1.96979,12.39157 -2.57476,16.1981 -2.9211,18.37988 -23.1595,45.29918 -38.53769,51.25938 -5.80588,2.2502 -11.2859,3.0375 -24.48039,3.5171 -15.933,0.5791 -16.99975,0.4615 -16.99597,-1.8731 z m 28.0436,-17.302 c 0.87327,-2.6461 1.25137,-6.884 0.84021,-9.4177 -0.50667,-3.1222 0.0303,-5.9916 1.66647,-8.90461 1.4587,-2.59709 2.94701,-9.46942 3.76081,-17.36567 1.60205,-15.54459 4.33327,-20.30315 7.00563,-12.2058 0.88993,2.69648 2.07796,12.10789 2.64008,20.91422 1.15716,18.12836 2.88847,22.07866 7.46163,17.02536 2.17742,-2.406 2.5735,-4.8444 2.55149,-15.70813 -0.0225,-11.12685 -0.52784,-14.00417 -3.74935,-21.34962 -3.94881,-9.0038 -3.8919,-12.17706 0.2184,-12.17706 3.39125,0 8.70361,5.51717 13.66928,14.19624 2.24589,3.9254 4.40617,7.13709 4.80063,7.13709 1.24466,0 -1.01778,-9.75451 -3.71101,-15.99999 -1.42305,-3.3 -4.02246,-7.2 -5.77648,-8.66667 -5.13417,-4.29308 -5.18884,-13.39555 -0.0921,-15.33333 4.16482,-1.58346 4.17235,-2.79829 0.0477,-7.70012 -4.94025,-5.87115 -6.93546,-14.74573 -4.86721,-21.64896 1.44776,-4.83219 2.06146,-5.4638 4.57899,-4.71266 10.52082,3.13902 23.00104,0.67473 34.23571,-6.76003 6.35598,-4.20618 14.83653,-16.51156 11.37936,-16.51156 -0.34399,0 -5.22098,3 -10.83775,6.66666 -13.48136,8.80073 -21.92807,9.0535 -15.92045,0.47642 1.07234,-1.53098 6.62234,-6.28398 12.33333,-10.56222 11.25395,-8.43061 21.71696,-17.83762 21.71696,-19.52514 0,-2.50843 -4.51106,-0.47282 -18.79063,8.47924 -19.84991,12.44417 -23.55738,14.02179 -26.36164,11.21754 -1.92152,-1.92153 -1.74889,-2.46673 1.95327,-6.16888 2.23359,-2.23359 10.0171,-8.10754 17.2967,-13.05323 9.16653,-6.22765 13.23564,-9.79224 13.23564,-11.59461 0,-3.70928 -2.8419,-2.95641 -20.71939,5.48894 -19.22586,9.08232 -30.45569,11.62539 -51.28062,11.61281 -18.31435,-0.011 -28.9809,-2.28263 -41.19561,-8.77314 -20.96132,-11.1382 -47.81911,-47.39248 -56.99181,-76.93105 -9.06299,-29.18526 2.95414,-90.58142 23.31421,-119.11349 10.68976,-14.98036 33.50053,-30.00611 58.20654,-38.34141 14.37211,-4.84886 31.9502,-6.35315 49.18283,-4.20897 l 9.84949,1.22553 -0.87401,-12.78082 c -0.4807,-7.02945 -1.21447,-23.28083 -1.6306,-36.11416 -0.84969,-26.20447 -0.0798,-30.50718 11.21254,-62.66666 9.04032,-25.74587 9.93938,-43.78992 2.9672,-59.55168 -4.20907,-9.51531 -9.08967,-15.12581 -15.89615,-18.27343 -5.59917,-2.58931 -8.39346,-2.83847 -31.47796,-2.80688 -20.86543,0.0285 -27.98008,0.56499 -40.34054,3.04164 -28.44055,5.6986 -56.09654,16.80019 -77.24534,31.00761 -69.13251,46.44206 -115.229,109.45107 -130.01672,177.71905 -4.22938,19.52505 -4.213002,55.60696 0.0341,75.22826 7.80891,36.07622 23.52691,71.57543 45.19361,102.0701 10.10016,14.21541 34.60463,38.79633 46.37483,46.51951 5.13333,3.36831 15.63333,8.90284 23.33333,12.29895 7.7,3.39612 16.4,7.95127 19.33334,10.12255 7.41951,5.492 12.55303,7.68992 23.18389,9.92619 5.04879,1.06204 12.64781,3.46479 16.8867,5.33943 19.92853,8.81334 46.4494,31.28763 53.15418,45.04386 4.1705,8.55664 8.77523,26.15486 8.77523,33.53689 0,3.0042 0.54915,7.37696 1.22034,9.71724 0.90982,3.17237 0.75332,4.64263 -0.61507,5.7783 -1.23944,1.02864 -1.69945,3.75703 -1.41672,8.40285 0.23027,3.7837 -0.0436,8.5035 -0.60858,10.4883 -2.54085,8.9259 3.92437,12.9632 6.801,4.2469 z M 241.93364,847.07641 c -2.12025,-2.12024 -2.07672,-2.40271 0.71914,-4.66666 1.6368,-1.3254 3.95953,-2.40757 5.16162,-2.40483 2.73383,0.006 10.85229,4.86838 10.85229,6.49943 0,3.44496 -13.40197,3.90314 -16.73305,0.57206 z m -11.26696,-18.863 c -4.46335,-1.32489 -5.05629,-5.98908 -1.11252,-8.7514 4.61381,-3.23163 12.28672,-2.71687 16.70484,1.1207 3.35845,2.91714 3.53324,3.46093 1.70922,5.31751 -2.35929,2.40141 -12.45647,3.75139 -17.30154,2.31319 z m -10.66666,-21.40104 c -7.86322,-2.17438 -2.3408,-13.20403 5.80555,-11.59515 5.9623,1.17753 18.8474,10.21348 16.5984,11.63997 -2.0575,1.30502 -17.63523,1.27386 -22.40395,-0.0448 z m -7.70189,-27.43802 c -3.13604,-0.9793 -7.25536,-2.79841 -9.15405,-4.04248 -2.99884,-1.96492 -3.20095,-2.51314 -1.5391,-4.17499 5.26818,-5.26818 20.20738,-2.35841 21.86834,4.25939 1.5337,6.11072 -1.19114,7.07581 -11.17519,3.95808 z m -7.86293,-35.94557 c -3.79399,-1.76648 -7.92307,-4.776 -9.17574,-6.68781 -2.1557,-3.29002 -2.15009,-3.61689 0.10481,-6.10852 3.22224,-3.56055 7.05622,-3.31058 13.52148,0.88157 6.87548,4.45815 10.68606,10.45541 8.39626,13.21445 -2.22967,2.68659 -4.85585,2.4209 -12.84681,-1.29969 z m 8.01788,-29.86756 c -7.25876,-5.74282 -14.49019,-15.34382 -13.16812,-17.48298 0.47984,-0.7764 2.91615,-1.41163 5.41402,-1.41163 5.69532,0 12.68029,5.83196 16.5438,13.8129 5.51808,11.39885 1.86471,13.51103 -8.7897,5.08171 z m 5.9355,-32.92306 c -5.73871,-3.79944 -8.19851,-7.70271 -7.07834,-11.23207 1.14179,-3.59746 4.2951,-4.34538 8.70531,-2.06477 4.39831,2.27445 10.19609,9.38505 10.86506,13.32529 0.68998,4.06402 -6.33489,4.04801 -12.49203,-0.0285 z m 17.98385,-22.30488 c -4.34921,-4.72896 -8.36198,-12.05987 -8.36743,-15.28642 -0.005,-2.96584 3.43108,-5.71358 7.1449,-5.71358 2.47925,0 7.51679,12.99017 7.51679,19.38335 0,5.43725 -2.24917,6.01493 -6.29426,1.61665 z m 12.81732,-27.49654 c -6.2912,-6.29119 -6.85459,-11.48795 -1.85339,-17.09577 3.2812,-3.6792 3.37,-3.69733 5.37379,-1.09752 2.34327,3.04029 5.95654,14.4379 5.95654,18.78918 0,5.23578 -3.88985,4.99119 -9.47694,-0.59589 z m 28.46475,-13.49625 c -8.50854,-5.18772 -11.76359,-14.72772 -7.70379,-22.57851 3.60345,-6.96831 10.04931,-6.23559 10.04931,1.14234 0,1.96781 1.25935,7.30697 2.79855,11.8648 2.61015,7.72907 2.69987,12.2376 0.2433,12.22585 -0.57302,-0.003 -2.99733,-1.19726 -5.38737,-2.65448 z m 19.20155,-16.34054 c -3.08904,-4.95009 -3.7317,-10.23724 -2.16289,-17.79415 1.52404,-7.34128 3.51528,-10.10468 5.254,-7.29139 2.23867,3.62226 5.74305,21.14887 4.90014,24.5073 -1.12309,4.47476 -5.36799,4.78192 -7.99125,0.57824 z m 49.24122,-4.42657 c -2.9856,-2.98559 -3.88917,-7.74484 -3.03735,-15.9982 0.95264,-9.23014 7.11995,-21.07809 11.2794,-21.66874 4.08773,-0.58046 4.79128,2.11007 2.35638,9.01131 -1.12532,3.18949 -2.38023,10.06277 -2.78868,15.27397 -1.0126,12.91894 -1.64638,15.4749 -3.83716,15.4749 -1.03364,0 -2.82131,-0.94196 -3.97259,-2.09324 z m -25.60657,-4.1223 c -2.20477,-5.27678 -1.63268,-11.70849 1.59699,-17.95399 1.93868,-3.74899 8.53563,-9.65162 9.59875,-8.5885 0.61047,0.61047 -1.3181,13.05573 -3.88826,25.09136 -1.65194,7.73576 -4.44947,8.29129 -7.30748,1.45113 z m 365.47078,299.88218 c -7.7491,-18.67828 -22.72731,-33.54964 -30.70672,-30.48765 -3.32788,1.27702 0.94261,7.41328 15.56985,22.37225 13.96403,14.28072 18.76186,16.853 15.13687,8.1154 z m 30.44729,0.85223 c -3.8806,-6.68233 -22.76287,-22.3704 -29.40872,-24.43381 -5.92042,-1.83819 -3.13807,3.68883 6.72799,13.36485 9.62198,9.43663 18.0117,15.04358 22.68073,15.15781 2.32273,0.0568 2.32273,-0.0891 0,-4.08885 z m 20.38651,-9.75314 c -1.89106,-3.22686 -5.63417,-7.22413 -8.31801,-8.88284 -5.13984,-3.1766 -15.16738,-4.28225 -16.04666,-1.76932 -0.51769,1.47952 10.90759,10.05624 21.17726,15.89734 3.14904,1.79108 5.92806,2.66371 6.17562,1.93917 0.24755,-0.72454 -1.09714,-3.95749 -2.98821,-7.18435 z m 29.87145,7.38081 c 0,-2.51253 -14.18169,-20.82097 -17.61954,-22.74668 -5.30276,-2.97033 -6.80684,-0.64006 -3.84985,5.96458 2.86257,6.39375 8.8778,12.68943 15.012,15.71189 5.11011,2.51787 6.45739,2.74116 6.45739,1.07021 z M 594.40005,870.39993 c 4.52242,-4.52242 -0.82618,-17.12895 -13.74643,-32.39999 -13.30495,-15.72574 -65.64611,-67.0212 -72.46519,-71.01745 -5.65604,-3.31465 -5.95349,-3.35272 -7.68577,-0.98368 -3.26291,4.46228 -3.58361,11.58155 -1.27087,28.21216 2.25138,16.18941 7.40426,38.0823 10.18727,43.28241 0.78551,1.46773 2.13757,2.42497 3.00459,2.12721 1.14786,-0.39421 1.44241,-5.89776 1.08352,-20.24531 -0.40601,-16.23135 -0.17103,-19.60343 1.33333,-19.13369 3.07478,0.96011 6.31318,9.20863 9.79412,24.9466 3.70628,16.75676 5.81296,22.14508 8.65809,22.14508 2.28664,0 4.89249,-8.24778 6.16811,-19.52271 0.49657,-4.38918 1.31651,-7.49213 1.82207,-6.89547 0.50556,0.59667 3.51779,8.21151 6.69385,16.92189 6.12147,16.78818 12.24253,26.55434 17.08284,27.25569 3.63546,0.52677 3.69016,-1.06278 0.26745,-7.77185 -6.16011,-12.0748 -7.66739,-26.65422 -2.75563,-26.65422 3.00904,0 6.59533,5.06664 13.94586,19.70242 5.57624,11.10295 13.04929,21.63091 15.35424,21.63091 0.5107,0 1.64855,-0.72 2.52855,-1.6 z m 144.26668,-15.77746 c 18.32629,-2.69304 30.20801,-6.30136 53.29739,-16.18569 30.04768,-12.86311 60.63355,-31.14863 75.10337,-44.89994 10.87547,-10.33543 29.62201,-39.06967 42.31949,-64.86625 12.22728,-24.84132 16.37238,-35.49934 19.33109,-49.70483 4.55222,-21.85628 3.82351,-83.21067 -1.39628,-117.56028 -2.38979,-15.72639 -3.89688,-21.02085 -6.948,-24.40849 -2.05977,-2.28695 -2.35923,-5.21649 -2.2642,-22.14961 0.18898,-33.67151 5.91248,-52.50698 19.81665,-65.21461 7.91996,-7.23839 16.50183,-11.24393 37.86657,-17.67398 7.586,-2.28313 13.57732,-4.36655 13.31404,-4.62983 -0.65384,-0.65384 -25.71842,1.49218 -40.59172,3.47544 -12.84085,1.71224 -16.51506,1.24305 -16.51506,-2.10897 0,-3.29376 4.41269,-6.32892 17.62429,-12.12244 12.64743,-5.54612 15.63306,-8.86516 8.69249,-9.66318 -4.87874,-0.56096 -15.56385,4.45793 -29.06401,13.6516 -20.9598,14.27371 -23.78772,11.51095 -10.12817,-9.89478 3.97766,-6.23333 7.05444,-11.53073 6.8373,-11.772 -0.21714,-0.24127 -4.65665,2.36905 -9.86559,5.80071 -9.71842,6.40252 -16.65686,13.74661 -20.75772,21.97129 -3.2274,6.47285 -5.97694,9.33334 -8.97136,9.33334 -1.41591,0 -8.61015,-5.8191 -16.15401,-13.06626 -15.20406,-14.60607 -23.08931,-19.20428 -34.32632,-20.0171 -17.75548,-1.28431 -49.19653,11.55378 -47.60829,19.43955 0.38889,1.93087 1.70743,2.23786 8.02544,1.86851 12.18648,-0.71243 33.02928,4.60098 33.02928,8.42007 0,2.28192 -5.51231,3.2762 -26,4.68976 -20.24982,1.39714 -26.30135,3.05406 -30.83576,8.44291 -5.51192,6.55055 -2.75412,7.17218 16.33794,3.68273 13.96955,-2.55321 17.03029,-2.76891 17.9967,-1.2683 2.54759,3.95585 0.30949,5.8618 -11.51743,9.80812 -17.50862,5.84215 -32.64812,15.67371 -32.64812,21.20162 0,3.50484 3.87396,2.452 12.40531,-3.37145 12.68519,-8.65883 17.61859,-10.43858 28.92802,-10.4359 16.06016,0.004 29.31936,6.51686 44.66667,21.94077 13.30067,13.36704 20.66667,30.86181 20.66667,49.08479 0,12.31947 -5.72434,44.57918 -10.69638,60.2798 -11.55719,36.49507 -37.16186,65.55634 -69.6897,79.09771 -13.66709,5.68962 -24.9938,7.33479 -44.80464,6.50773 -40.39109,-1.68625 -69.80401,-15.42497 -104.38199,-48.75663 -22.66249,-21.84566 -30.2582,-32.72595 -38.5543,-55.22619 -2.21449,-6.00602 -4.21665,-11.11034 -4.44926,-11.34295 -0.2326,-0.2326 -3.53582,3.77616 -7.34048,8.90837 -10.35474,13.96777 -19.79092,21.87152 -35.19245,29.47719 -18.53796,9.15452 -34.8527,13.06566 -60.88367,14.5957 -24.86906,1.46174 -30.8147,3.26074 -40.73177,12.32438 -8.86358,8.10081 -9.75071,10.91156 -5.85817,18.56075 5.35632,10.52565 60.79017,92.18414 72.28911,106.48762 15.48505,19.26181 40.74091,43.26761 56.69438,53.88826 19.57609,13.03233 66.91628,35.0276 89.43414,41.55302 21.89922,6.34614 39.82156,6.79675 73.49851,1.84792 z m -14.66667,-20.67085 c 0,-6.24199 23.92614,-28.61835 30.60045,-28.61835 4.52198,0 -4.84007,12.54695 -15.89547,21.30299 -5.03353,3.98663 -14.70498,8.79793 -14.70498,7.31536 z m -49.33334,-3.00666 c 0,-3.77733 8.52296,-10.73153 20.51369,-16.73788 10.99409,-5.50712 19.48631,-7.64028 19.48631,-4.89476 0,4.49705 -26.43402,22.16841 -35.31742,23.60998 -4.08069,0.66221 -4.68258,0.40804 -4.68258,-1.97734 z m 98.66667,-6.48995 c 0,-8.03177 19.32296,-39.21412 25.51859,-41.18053 4.26534,-1.35377 5.60207,1.05847 3.44495,6.21666 -2.29736,5.49355 -18.56122,29.77282 -23.33957,34.84213 -4.32872,4.59231 -5.62397,4.62034 -5.62397,0.12174 z m -143.66667,-7.96447 c -5.45111,-2.33142 5.30431,-9.70827 20.90867,-14.34069 14.36118,-4.26336 22.10192,-1.36879 14.29578,5.34577 -5.81957,5.00579 -30.05392,11.19779 -35.20445,8.99492 z M 591.5556,801.77772 c -1.86625,-1.86626 -0.76323,-5.55343 2.25243,-7.52936 3.55272,-2.32783 29.81368,-10.24842 33.97896,-10.24842 10.00527,0 -1.36247,9.33773 -17.76368,14.5915 -12.8521,4.1169 -16.84771,4.80627 -18.46771,3.18628 z m 235.18204,-1.70687 c -6.39925,-6.39925 -10.66375,-20.4779 -8.08711,-26.69845 4.94758,-11.94454 15.92242,-0.69858 15.98692,16.38186 0.0292,7.73615 -1.58134,12.91234 -4.01763,12.91234 -0.70753,0 -2.45451,-1.16809 -3.88218,-2.59575 z M 556.26671,779.73327 c -2.57206,-2.57206 -1.94066,-8.79052 1.05537,-10.39395 1.46045,-0.78161 7.61045,-1.75683 13.66667,-2.16715 13.45756,-0.91179 18.36428,-2.31562 22.9509,-6.56636 3.9701,-3.67937 9.74026,-4.32491 10.93062,-1.22288 1.15121,3.00001 -2.61247,6.47558 -12.64593,11.6779 -17.01472,8.8221 -32.1561,12.47397 -35.95763,8.67244 z m 292.12174,-1.4 c -9.19545,-10.05655 -11.56926,-25 -3.97133,-25 5.55411,0 11.58295,9.98381 11.58295,19.18146 0,9.09563 -2.71643,11.17214 -7.61162,5.81854 z m 21.93768,-27.51721 c -9.43047,-9.9968 -11.4646,-13.8377 -8.93963,-16.8801 2.81567,-3.39267 6.90947,-2.10427 12.77941,4.02195 7.34303,7.6636 11.00339,20.09932 6.3701,21.64178 -0.80523,0.26807 -5.39967,-3.68456 -10.20988,-8.78363 z m -335.99275,-1.58958 c -5.81625,-3.38766 -0.56722,-7.80899 12.33333,-10.38853 8.15772,-1.63119 34.10159,-2.5142 35.41058,-1.20521 1.88952,1.88952 -10.62906,8.94563 -19.41701,10.94441 -10.37103,2.35884 -24.82308,2.69012 -28.3269,0.64933 z M 880.3334,724.01456 c -5.00872,-3.05388 -5.37806,-5.1445 -1.68421,-9.53357 l 2.64911,-3.14771 5.35089,5.61503 c 2.94298,3.08827 5.35088,6.53827 5.35088,7.66667 0,2.94284 -6.3951,2.61371 -11.66667,-0.60042 z m -370.34073,-1.35988 c -1.57461,-2.54777 0.78198,-6.40211 5.19457,-8.49602 11.6498,-5.52819 35.06841,-8.03652 40.1743,-4.303 5.51846,4.03519 -3.55176,8.35716 -25.3615,12.08478 -14.02351,2.39683 -18.86075,2.56952 -20.00737,0.71424 z m 387.52029,-25.79694 c -3.73736,-3.97823 -3.43309,-9.34513 0.5622,-9.91669 3.83569,-0.54872 10.21577,5.65368 9.68171,9.4121 -0.62112,4.37111 -6.34656,4.65313 -10.24391,0.50459 z m -399.74943,-4.45275 c -1.59674,-0.31082 -3.67724,-1.49784 -4.62333,-2.63781 -1.45106,-1.74841 -1.1525,-2.56096 1.90843,-5.19385 1.99573,-1.71665 5.87623,-3.45539 8.62334,-3.86386 2.7471,-0.40847 10.4249,-1.96237 17.06178,-3.4531 16.31191,-3.6639 20.80668,-1.6915 12.93296,5.67524 -8.25131,7.72001 -23.81467,11.82655 -35.90318,9.47338 z m 406.53322,-11.81398 c -3.7187,-2.60467 -3.88018,-8.00657 -0.29668,-9.9244 3.53609,-1.89245 7.69808,0.33279 8.79472,4.70218 1.72503,6.87304 -2.46502,9.44791 -8.49804,5.22222 z m 1.03666,-25.69198 c 0,-2.08561 6.17707,-6.89908 8.85351,-6.89908 2.48687,0 8.47982,5.00785 8.47982,7.08593 0,0.50274 -3.9,0.91407 -8.66667,0.91407 -4.76666,0 -8.66666,-0.49541 -8.66666,-1.10092 z m -435.14708,-5.07209 c -2.09754,-1.13643 -3.29754,-2.56424 -2.66667,-3.1729 2.61886,-2.52665 18.15734,-5.48021 32.81371,-6.23725 l 15.66667,-0.80921 v 3.26708 c 0,3.0191 -0.93613,3.49104 -12.33333,6.21765 -14.34655,3.4322 -27.95047,3.7307 -33.48038,0.73463 z m 443.48041,-14.71003 c -4.41607,-1.78192 1.3122,-8.96691 6.55671,-8.2241 4.68023,0.66288 4.99112,6.04473 0.44894,7.77166 -3.78417,1.43874 -4.45412,1.48201 -7.00565,0.45244 z m -2.4867,-27.7025 c -1.0845,-2.82616 0.15282,-5.63022 3.20524,-7.26383 3.48714,-1.86625 8.58348,1.71896 8.02399,5.64478 -0.32288,2.26557 -1.46621,2.95869 -5.41991,3.28572 -3.58605,0.29662 -5.23778,-0.17726 -5.80932,-1.66667 z m -11.26938,207.91243 c 3.1659,-3.1668 -0.17834,-4.61538 -10.71163,-4.63982 -9.9011,-0.023 -17.19896,1.99309 -17.19896,4.75128 0,4.73254 23.16044,4.64005 27.91059,-0.11146 z m 13.5212,-19.50319 c 5.86413,-1.97001 9.69251,-5.23275 8.05791,-6.86735 -1.59041,-1.59041 -22.98637,1.18566 -29.22341,3.79166 -4.02477,1.68166 -4.37059,2.1864 -2.79701,4.08245 1.46471,1.76487 3.41697,2.01284 10.59493,1.34572 4.83965,-0.4498 10.85506,-1.50841 13.36758,-2.35248 z m 15.55227,-23.99062 c 16.10697,-5.15646 27.01595,-9.90501 27.01595,-11.75972 0,-2.09279 -1.69213,-1.83585 -22.02158,3.34382 -12.32589,3.14047 -20.55325,4.55306 -24.2752,4.1679 -4.67799,-0.48409 -5.76766,-0.14922 -6.44349,1.98013 -2.36088,7.43847 6.99638,8.26341 25.72432,2.26787 z m 7.58884,-21.24585 c 6.80377,-2.54562 20.43061,-12.69485 18.98527,-14.14018 -0.273,-0.27301 -4.63528,1.26373 -9.69394,3.41497 -5.05866,2.15124 -13.63973,4.52594 -19.06906,5.27711 -11.14663,1.54218 -15.05058,4.00664 -12.05831,7.61211 2.34595,2.82669 10.71357,1.99744 21.83604,-2.16401 z m -628.57793,-7.58724 c -0.0127,-2.54115 -5.99474,-10.23243 -17.68222,-22.73439 -13.44029,-14.37693 -17.73927,-21.59894 -12.85699,-21.59894 3.91896,0 11.39616,4.16113 23.29123,12.96177 13.26963,9.81762 14.68374,10.70067 13.20217,8.24424 -0.62121,-1.02997 -4.99701,-6.64275 -9.724,-12.47285 -9.25854,-11.41914 -13.48277,-19.24564 -13.52926,-25.06649 -0.055,-6.88862 4.94739,-4.63122 17.10419,7.7185 6.16402,6.26184 11.34279,11.21184 11.50839,11 0.16559,-0.21184 -2.25735,-12.38517 -5.38431,-27.05183 -3.12696,-14.66667 -5.55455,-26.80124 -5.39463,-26.96572 0.15991,-0.16449 5.35618,5.82188 11.54725,13.30303 l 11.2565,13.6021 0.3778,-14.23945 c 0.27846,-10.4954 -0.16096,-15.52887 -1.67122,-19.14342 -1.92507,-4.60734 -2.33274,-4.85793 -6.73968,-4.14279 -9.96111,1.61647 -33.64885,19.45253 -45.99016,34.62903 -3.70797,4.5598 -8.81963,12.42116 -11.35925,17.46969 -7.92913,15.76236 -5.73619,24.43154 8.28852,32.76626 9.33455,5.54743 21.22381,14.46203 25.65974,19.23977 2.99162,3.22214 8.10744,4.79019 8.09593,2.48149 z m 636.58747,-16.43823 c 4.46411,-3.91954 13.64907,-18.10804 12.47945,-19.27766 -0.30673,-0.30673 -5.32113,3.40844 -11.14312,8.25592 -5.82199,4.84748 -11.93028,9.69966 -13.57398,10.78263 -3.89656,2.56728 -2.66102,4.34401 3.02084,4.34401 3.17072,0 5.95279,-1.23905 9.21681,-4.1049 z M 759.51604,668.99995 c 7.87966,-5.26606 13.81735,-15.79167 13.81735,-24.49373 0,-10.80849 -3.8652,-8.76446 -17.4591,9.23289 -8.52467,11.28605 -10.71059,16.49043 -7.72136,18.38353 2.97021,1.88106 4.50846,1.45834 11.36311,-3.12269 z m -21.5534,-1.19869 c 6.94043,-8.24824 14.80204,-26.92397 13.14809,-31.2341 -2.01964,-5.26308 -14.51999,1.8287 -30.19013,17.12764 -10.08146,9.84266 -9.90898,12.13585 1.21957,16.2141 8.36566,3.06575 11.86114,2.60013 15.82247,-2.10764 z M 702.3996,660.8042 c 8.22733,-4.25576 26.96198,-27.37918 28.99864,-35.79182 1.27731,-5.2761 -2.2632,-6.12272 -8.43121,-2.01611 -6.96904,4.63993 -26.08524,24.14615 -29.03961,29.63208 -2.39468,4.44664 -2.39435,4.64561 0.0121,7.30471 2.92945,3.237 3.72749,3.31918 8.46008,0.87114 z m -18.66852,-14.91993 c 3.98297,-1.9848 9.90557,-6.74677 13.95087,-11.21698 7.6175,-8.4176 14.04096,-18.66734 11.69873,-18.66734 -4.13323,0 -32.02362,15.83844 -38.38063,21.79564 -5.10749,4.78628 -5.37802,6.65475 -1.36999,9.46209 4.04042,2.83002 6.0607,2.63325 14.10102,-1.37341 z M 431.48064,632.53408 c 2.85233,-1.90624 6.98606,-5.11103 9.18606,-7.12178 11.80095,-10.78576 20.49108,-13.88836 48.96129,-17.48045 26.09772,-3.29276 37.06567,-5.63323 50.56464,-10.79008 14.73818,-5.63026 24.38711,-12.40958 43.31582,-30.43362 9.22666,-8.78568 19.06683,-16.98479 21.86706,-18.22025 11.90344,-5.25178 5.83461,-10.3605 -17.90373,-15.07131 -15.404,-3.05688 -22.65713,-5.88779 -21.76479,-8.49485 0.39377,-1.15045 6.48352,-1.54275 22.08504,-1.42272 11.84774,0.0911 21.5314,-0.20886 21.51924,-0.66667 -0.0122,-0.45781 -8.12347,-10.28985 -18.02515,-21.84896 -27.33782,-31.91389 -41.76292,-42.17194 -77.28608,-54.96005 -20.18416,-7.26617 -39.36482,-15.98054 -55.33334,-25.13967 -23.58611,-13.52839 -40.57913,-20.8379 -42.94453,-18.47251 -1.23145,1.23146 0.61938,3.68296 19.95807,26.43523 14.97368,17.61677 22.95441,33.82024 16.65755,33.82024 -1.2809,0 -11.3309,-9.22565 -22.33333,-20.50145 -11.00244,-11.27579 -21.36333,-21.20167 -23.02421,-22.05749 -5.20799,-2.6836 -4.97017,1.54799 0.79645,14.17178 7.13043,15.60933 8.59279,21.58923 8.57228,35.05383 -0.0213,13.96882 -2.54531,24.86484 -10.30414,44.48209 -8.64933,21.86876 -9.20619,25.56402 -8.26586,54.85123 1.04694,32.60772 4.65766,52.66667 9.48029,52.66667 1.09898,0 3.65399,-3.39991 5.69966,-7.58446 2.03928,-4.17145 7.02375,-11.07145 11.07662,-15.33333 13.72328,-14.43101 15.53151,-8.72081 4.71253,14.88166 -5.62806,12.27805 -7.37776,19.62863 -5.19249,21.8139 1.42198,1.42198 2.43344,1.09309 7.92505,-2.57698 z m 52.5194,-88.7638 c -7.23439,-3.74217 -10.66167,-9.79567 -10.6646,-18.83653 -0.002,-7.27026 2.07924,-12.01034 7.54556,-17.1823 5.23057,-4.94889 9.83608,-6.41816 20.11821,-6.41816 17.67648,0 26.53357,8.45769 25.39151,24.24652 -1.00968,13.95869 -8.06291,19.69104 -25.43825,20.67431 -9.58561,0.54246 -11.70121,0.23248 -16.95243,-2.48384 z m 26.56437,-13.88885 c 4.81632,-4.05266 5.13372,-6.87727 1.3179,-11.7283 -8.89982,-11.31429 -26.54894,-9.42069 -26.54894,2.84848 0,3.23659 1.11698,5.65379 3.89744,8.43425 3.26842,3.26841 4.97343,3.89743 10.56437,3.89743 5.22716,0 7.55284,-0.74545 10.76923,-3.45186 z m 154.09531,100.78858 c 7.20189,-3.48638 13.28123,-9.83026 12.17726,-12.70716 -0.99043,-2.58101 -6.87769,-1.93467 -20.50359,2.25103 -6.81449,2.09332 -8.33334,3.07777 -8.33334,5.40132 0,3.97062 3.78029,7.71808 7.78569,7.71808 1.85481,0 5.8481,-1.19847 8.87398,-2.66327 z M 85.285721,621.87507 c 1.712488,-1.64472 1.685783,-2.14172 -0.217347,-4.04485 -2.685445,-2.68544 -20.207102,-4.30252 -21.632332,-1.99645 -0.509712,0.82474 -1.957835,1.49952 -3.218052,1.49952 -3.738842,0 -8.554187,3.98833 -7.031098,5.82354 1.929482,2.32488 29.489439,1.22437 32.098829,-1.28176 z m 9.986068,-19.10886 c 2.206824,-3.57071 -25.555989,-7.15859 -31.359439,-4.05268 -3.208114,1.71693 -3.312129,3.56598 -0.245678,4.36732 4.481645,1.17118 30.849064,0.90868 31.605117,-0.31464 z m 12.068221,-20.11038 c 0.90939,-1.47141 -8.126496,-5.73196 -15.007242,-7.07613 -7.543427,-1.47363 -15.855825,4.03798 -10.860385,7.20107 2.579891,1.63358 24.847277,1.52602 25.867627,-0.12494 z m 10.55095,-19.46519 c 3.11343,-1.19474 2.57742,-2.88 -1.60369,-5.04214 -5.46487,-2.82599 -13.13354,-4.0153 -14.24935,-2.20988 -2.47725,4.00827 9.74087,9.59748 15.85304,7.25202 z M 618.3996,488.77652 c 17.69245,-9.28788 49.67167,-71.125 57.0193,-110.25626 1.15531,-6.15283 3.32832,-13.28695 4.82892,-15.85362 4.57126,-7.81879 5.87792,-26.43012 4.00249,-57.00904 C 680.7952,249.32191 672.67346,213.77104 654.78182,176.66665 634.24408,134.07466 599.80456,99.111455 559.45753,79.89285 518.60154,60.431808 467.76601,56.987067 415.5334,70.140195 c -27.26993,6.867066 -50.07509,18.533591 -79.61141,40.727105 -31.61535,23.75571 -62.26021,59.13643 -69.3435,80.05987 -1.23113,3.63668 -4.43888,8.86561 -7.12831,11.61984 -8.15636,8.35287 -31.93498,21.4356 -49.59074,27.28426 -8.07877,2.67618 -27.28676,5.04437 -29.1889,3.59876 -2.44071,-1.85493 -13.49542,-4.32411 -17.34267,-3.87366 -4.33857,0.50797 -6.28447,3.77695 -2.24829,3.77695 1.44932,0 2.94943,0.81904 3.33356,1.82009 0.38414,1.00105 3.44834,2.63204 6.80932,3.62442 6.22475,1.83795 7.36796,3.43174 4.51089,6.28882 -4.54818,4.54818 -16.92714,0.0901 -37.72453,-13.58587 -16.4842,-10.8397 -17.87742,-10.18187 -4.81787,2.27484 5.83461,5.56527 11.38732,9.21802 19.79273,13.02029 20.48629,9.26718 20.96158,9.60865 21.44813,15.40944 0.54899,6.54529 2.97704,9.18253 10.86684,11.8031 7.63515,2.53599 11.31885,6.2487 13.24061,13.34486 0.7944,2.93333 3.17972,8.34244 5.30072,12.02024 3.96672,6.87829 15.599,20.64643 17.44353,20.64643 0.57,0 1.34066,-2.69968 1.71257,-5.99927 0.80268,-7.1213 2.85896,-10.00073 7.1418,-10.00073 2.35414,0 3.33912,0.92175 3.91819,3.66666 1.34399,6.3708 4.396,12.12465 7.23807,13.64568 3.52247,1.88517 4.72734,-0.66218 2.7603,-5.83588 -0.76327,-2.00753 -1.38775,-5.111 -1.38775,-6.8966 0,-7.99827 8.54971,-0.89183 21.76011,18.0868 3.82836,5.5 7.84849,10 8.93361,10 4.59072,0 -1.07484,-23.83016 -10.25047,-43.11497 -4.48278,-9.42163 -4.59619,-10.03504 -3.08152,-16.66666 2.1982,-9.6243 14.48199,-34.9611 22.74444,-46.91315 3.80934,-5.51041 11.64382,-14.2719 17.40996,-19.46999 5.84726,-5.27124 10.48387,-10.53316 10.48387,-11.89779 0,-1.34569 0.46105,-2.73166 1.02456,-3.07993 0.5635,-0.34826 13.6135,-2.25093 29,-4.22815 31.13344,-4.00075 40.88258,-3.85857 56.03961,0.81728 35.83194,11.05392 63.54205,39.07978 78.84954,79.74801 9.98618,26.53084 11.62698,58.75367 4.34643,85.35738 -1.48791,5.43696 -6.58013,17.58333 -11.31604,26.99195 -4.73592,9.40861 -8.59326,17.8602 -8.57189,18.78129 0.0548,2.36184 14.28048,12.41154 23.07348,16.30022 4.05879,1.79498 12.21579,4.46727 18.12667,5.9384 30.67932,7.63565 69.25869,29.28378 89.68716,50.32638 14.63893,15.07899 19.48738,17.41197 27.47339,13.21961 z m -7.45952,-12.75007 c -6.34434,-2.8987 -25.6067,-15.85953 -25.6067,-17.22967 0,-2.16645 4.37301,-6.79559 6.40894,-6.7843 3.8969,0.0216 16.40498,8.00775 23.22756,14.83033 9.65004,9.65004 7.53592,14.46796 -4.0298,9.18364 z m 13.8201,-29.98414 c -5.08193,-1.80713 -12.12465,-5.25426 -15.65049,-7.66028 -10.13857,-6.91851 -10.12503,-10.38206 0.0406,-10.38206 7.73824,0 18.25388,4.93825 25.79844,12.11522 9.16057,8.71424 4.79353,11.25474 -10.18854,5.92712 z m 19.23987,-27.91182 c -19.71278,-8.18083 -29.99521,-16.11987 -26.43463,-20.4101 3.29647,-3.97202 21.05065,2.47306 32.1013,11.65333 5.35462,4.44833 5.96016,6.19683 3.33333,9.62501 -1.52681,1.99258 -2.28203,1.91973 -9,-0.86824 z m 0.15521,-31.45 c -8.85084,-3.21482 -12.82104,-5.75561 -15.5849,-9.97379 -2.82559,-4.31239 -1.49749,-6.04006 4.64313,-6.04006 9.04376,0 24.60231,9.97419 23.84201,15.28451 -0.52441,3.66279 -4.24492,3.87313 -12.90024,0.72934 z m 2.13479,-33.46929 c -7.85168,-1.84885 -13.18381,-5.05447 -12.67767,-7.62168 0.37058,-1.87962 2.11617,-2.25621 10.4581,-2.25621 8.1269,0 11.26068,0.64254 16.63474,3.41074 3.6418,1.87591 6.81697,4.42591 7.05591,5.66667 0.37319,1.93781 -0.75441,2.23703 -7.99665,2.12198 -4.6371,-0.0737 -10.70059,-0.66833 -13.47443,-1.3215 z m 3.41007,-30.50581 c -5.80734,-1.37976 -10.64429,-4.71227 -11.7091,-8.06721 -1.37551,-4.33384 1.59471,-6.64172 8.50562,-6.60892 12.64719,0.06 30.12066,12.06863 22.06103,15.1614 -2.79021,1.0707 -13.46474,0.79601 -18.85755,-0.48527 z m -2.72905,-33.679 c -5.63691,-2.71664 -4.90657,-13.02641 0.92278,-13.02641 4.54499,0 16.01497,4.35588 18.39496,6.98574 2.26291,2.50049 2.23244,2.70099 -0.78139,5.14144 -3.52827,2.85703 -13.47296,3.33946 -18.53635,0.89923 z m -145.6377,-9.20231 c 0,-2.75762 8.87704,-9.93196 14.2992,-11.55648 7.30189,-2.1877 15.71004,-2.00941 20.43369,0.43329 4.78339,2.47359 4.93079,3.91768 0.6839,6.70036 -7.5524,4.94851 -35.41679,8.42821 -35.41679,4.42283 z m 138.66668,-19.8241 c -3.26881,-3.26881 -3.32094,-4.35401 -0.33333,-6.93864 5.57934,-4.8268 15.69598,-3.39835 17.15693,2.42252 1.19785,4.77265 -1.59393,7.18279 -8.32019,7.18279 -4.05896,0 -6.64897,-0.81223 -8.50341,-2.66667 z m -142.64704,-7.69414 c 0.0108,-0.53489 1.14907,-4.57253 2.52948,-8.97253 l 2.50985,-7.99999 h 8.6647 c 6.68349,0 9.31346,0.58729 11.50202,2.56849 3.71226,3.36053 2.09371,4.84914 -6.80126,6.25524 -4.31011,0.68134 -9.28536,2.6795 -12.74689,5.11941 -3.12265,2.20105 -5.6687,3.56426 -5.6579,3.02938 z M 480.2667,227.73332 c -2.57836,-2.57837 -1.85072,-7.50758 1.42511,-9.65399 4.47515,-2.93223 21.89541,-5.69217 23.81457,-3.77301 2.68621,2.68621 0.22343,5.31087 -9.58989,10.22028 -10.28851,5.14713 -13.12762,5.72888 -15.64979,3.20672 z m -29.6,-31.55352 c 0,-4.46095 16.07763,-16.14085 22.25465,-16.1673 7.99915,-0.0343 3.00073,7.26246 -9.21662,13.45446 -7.52744,3.81506 -13.03803,4.96166 -13.03803,2.71284 z m -156.44445,-1.0687 c -1.50688,-1.50688 -0.98452,-5.3719 0.94211,-6.97086 3.52061,-2.92185 8.37861,1.35809 6.65117,5.85974 -0.77192,2.01159 -5.93701,2.76739 -7.59328,1.11112 z m 130.1889,-10.04227 c -4.12117,-1.98418 -4.69378,-4.47666 -2.33029,-10.14337 4.27786,-10.25664 13.23238,-16.09949 19.03583,-12.42094 2.93389,1.85967 1.31379,7.28524 -2.43803,8.16476 -2.20641,0.51724 -3.7052,2.10216 -4.46477,4.72133 -1.68237,5.80123 -4.03081,10.34824 -5.54719,10.74036 -0.73333,0.18964 -2.64833,-0.28833 -4.25555,-1.06214 z m -109.74446,-4.15076 c 0,-5.94271 4.43333,-10.82691 8.06383,-8.88393 5.36622,2.87192 1.13456,13.29918 -5.39716,13.29918 -2.12981,0 -2.66667,-0.88889 -2.66667,-4.41525 z m 36.88889,-5.80697 c -2.96531,-2.96532 3.6077,-15.26325 13.02672,-24.37267 4.0216,-3.8894 4.7509,-4.19648 4.75001,-2 -0.002,3.88307 -7.68013,19.40705 -11.67064,23.59489 -3.63866,3.8186 -4.6192,4.26467 -6.10609,2.77778 z m 29.77778,-4.79842 c 0,-3.4423 0.93255,-8.58939 2.07233,-11.43798 2.98621,-7.46328 11.26101,-10.68491 11.26101,-4.38425 0,2.45227 -8.1277,16.78526 -11.41416,20.12858 -1.67473,1.70371 -1.91918,1.1552 -1.91918,-4.30635 z m -196.33335,308.8469 c 3.94796,-1.05801 3.80872,-3.90159 -0.32362,-6.60919 -3.83814,-2.51485 -9.28915,-1.68469 -10.55231,1.60706 -1.76342,4.59539 3.44866,6.99256 10.87593,5.00213 z m 25.22853,-18.65459 c 2.18291,-3.33155 2.17243,-3.58095 -0.2241,-5.33334 -3.3376,-2.44051 -21.14347,-2.59081 -20.33924,-0.17169 0.4036,1.21405 15.14115,8.55995 17.97075,8.95749 0.16642,0.0234 1.33309,-1.53023 2.59259,-3.45246 z m 29.82702,-15.90528 c 2.19728,-2.64756 0.10465,-4.68164 -7.38887,-7.1821 -2.93334,-0.9788 -7.00464,-2.95421 -9.04733,-4.3898 -3.87816,-2.72554 -7.61934,-2.39123 -7.61934,0.68086 0,3.06055 7.22479,8.896 13.42014,10.83941 7.85671,2.46456 8.62973,2.46831 10.6354,0.0516 z m 18.61113,-14.00805 c 0,-1.89762 -11.18469,-6.73609 -17.54255,-7.58885 -7.44532,-0.99863 -6.5261,1.80046 1.87588,5.71214 7.20521,3.35451 15.66667,4.36811 15.66667,1.87671 z m 448.00003,-35.59173 c 17.93589,-9.48099 35.47387,-20.3912 41.00001,-25.50573 10.25581,-9.49192 0.32284,-17.13565 -15.16615,-11.67082 -2.84244,1.00287 -9.06788,4.29717 -13.8343,7.32066 -4.76642,3.0235 -9.83392,5.50296 -11.26111,5.50993 -2.19828,0.0107 -1.8926,-0.72341 2,-4.80325 2.52719,-2.64876 9.38959,-8.19876 15.24977,-12.33334 15.15467,-10.69217 22.33586,-17.85331 21.78745,-21.72662 -0.34234,-2.41794 -1.39967,-3.21691 -4.67754,-3.53461 -4.94512,-0.4793 -11.36413,2.55622 -23.82392,11.26624 -4.90144,3.42634 -11.09327,6.94883 -13.75962,7.82773 -3.68529,1.21478 -5.55784,3.00319 -7.80813,7.45727 -3.25628,6.44526 -11.61849,44.42801 -10.451,47.47043 1.00286,2.61341 4.06438,1.53932 20.74454,-7.27789 z M 469.33337,346.66664 c 2.05439,-3.83867 -0.0154,-6.8659 -8.58226,-12.55226 -12.58782,-8.35532 -26.08441,-13.73525 -26.08441,-10.39762 0,2.59202 19.26788,19.06929 27.33334,23.3746 5.18988,2.77033 5.63726,2.74442 7.33333,-0.42472 z m 238.26122,-8.4734 c 24.32509,-17.90711 41.30749,-36.85993 33.02781,-36.85993 -2.74959,0 -12.8507,5.32345 -22.62234,11.92236 -8.0502,5.43639 -11.33334,6.59818 -11.33334,4.01051 0,-1.62664 13.10187,-14.95273 24.66667,-25.08881 l 8,-7.01168 -5.33333,0.82508 c -9.90876,1.53291 -26.08094,6.31384 -28.75866,8.50183 -3.30917,2.70395 -6.03774,12.86329 -8.00912,29.82049 -1.48173,12.74532 -1.0187,19.68688 1.31317,19.68688 0.63869,0 4.7108,-2.61303 9.04914,-5.80673 z M 473.08048,313.68717 c -0.22758,-1.17309 -2.21378,-2.67753 -4.41378,-3.34321 -2.2,-0.66568 -7.37502,-2.6654 -11.50006,-4.44382 -4.12503,-1.77842 -9.37503,-3.2335 -11.66667,-3.2335 -3.57771,0 -4.1666,0.48074 -4.1666,3.40137 0,3.89212 4.1482,6.11112 18.66667,9.98538 9.2259,2.46193 13.85465,1.6246 13.08044,-2.36622 z m -7.69157,-25.08744 c 3.30917,-3.98731 -1.18615,-6.05517 -14.94821,-6.87622 -13.51524,-0.80633 -18.95932,0.59862 -18.17149,4.68949 0.55164,2.86446 5.58067,3.89951 19.9009,4.09589 8.90523,0.12212 11.89085,-0.30908 13.2188,-1.90916 z m -19.95213,-19.26642 c 8.52832,0 12.21858,-2.39888 9.22992,-6 -2.33719,-2.81615 -20.32507,-2.82144 -22.66113,-0.007 -2.20025,2.65115 2.0184,9.84941 4.38526,7.48254 0.81173,-0.81173 4.8824,-1.47587 9.04595,-1.47587 z m -11.43675,-14.66666 c 0.45323,-0.73334 2.21537,-1.33334 3.91586,-1.33334 3.71685,0 12.22196,-3.39894 13.44109,-5.37153 1.88824,-3.05524 -2.31919,-5.29513 -9.94642,-5.29513 -6.44095,0 -8.03711,0.50698 -10.49459,3.33333 -1.59407,1.83333 -3.50227,3.33333 -4.24045,3.33333 -1.93548,0 -1.6558,4.98456 0.32451,5.78363 2.85602,1.15243 6.14003,0.94117 7,-0.45029 z m 261.73082,-22.89941 c 3.21292,-6.40987 5.42872,-22.8708 3.67825,-27.32542 -0.81236,-2.0673 -1.35214,-1.68398 -3.51919,2.49913 -5.46849,10.55596 -8.90574,32.65876 -4.88986,31.44361 0.91667,-0.27737 3.04553,-3.25516 4.7308,-6.61732 z m -7.80551,-25.67723 c 0.87183,-1.05049 2.10675,-5.40049 2.74427,-9.66667 0.63753,-4.26618 1.70032,-10.50019 2.36177,-13.85335 1.30771,-6.62937 -0.0403,-12.43312 -2.69633,-11.60905 -3.52826,1.09467 -6.84036,10.89288 -7.42088,21.95327 -0.7458,14.20938 0.7938,18.25742 5.01117,13.1758 z M 677.8574,171.22427 c 1.81232,-4.72282 0.4923,-13.89095 -2,-13.89095 -0.65487,0 -1.19068,3.6 -1.19068,8 0,7.6557 1.47117,10.37192 3.19068,5.89095 z m -14.38797,-22.67756 c 2.60547,-6.23575 2.46591,-16.39942 -0.23943,-17.43756 -3.49765,-1.34217 -6.29321,2.94641 -6.93055,10.63193 -0.61781,7.44997 1.38894,13.6876 3.90355,12.13348 0.77136,-0.47673 2.24126,-2.87426 3.26643,-5.32785 z M 557.33338,59.280211 c 0,-5.621568 -12.75979,-23.280214 -16.82182,-23.280214 -2.97444,0 -2.16379,2.887328 2.9998,10.684464 8.1026,12.235102 13.82202,17.447105 13.82202,12.59575 z m -41.33334,-4.406834 c 0,-4.52165 -17.59463,-25.540046 -21.37973,-25.540046 -3.81125,0 -0.20683,6.493093 8.88997,16.014612 9.53402,9.979138 12.48976,12.233365 12.48976,9.525434 z m 20,-0.917706 c 0,-6.975397 -13.73057,-24.445172 -17.9426,-22.828862 -1.92564,0.738937 -1.92989,1.264018 -0.0466,5.771273 2.07181,4.958534 7.12594,12.238608 11.60857,16.721238 2.91973,2.919733 6.38067,3.102173 6.38067,0.336351 z M 490.0552,44.173809 c -1.28348,-4.04389 -14.43716,-17.507144 -17.10458,-17.507144 -3.23973,0 -2.85135,2.028124 1.63784,8.552945 8.02604,11.665438 18.19594,17.553124 15.46674,8.954199 z m -32.16421,-8.98313 c 2.99225,-1.148236 2.6117,-4.020732 -0.8543,-6.448409 -6.00568,-4.206546 -10.76079,-1.130501 -6.86046,4.437991 2.03093,2.899563 4.03603,3.422079 7.71476,2.010418 z"
       id="path1" />
  </g>
</svg>
